<?xml version="1.0" encoding="UTF-8" standalone="no"?>
<!-- Created with Inkscape (http://www.inkscape.org/) -->

<svg
   xmlns:dc="http://purl.org/dc/elements/1.1/"
   xmlns:cc="http://creativecommons.org/ns#"
   xmlns:rdf="http://www.w3.org/1999/02/22-rdf-syntax-ns#"
   xmlns:svg="http://www.w3.org/2000/svg"
   xmlns="http://www.w3.org/2000/svg"
   xmlns:sodipodi="http://sodipodi.sourceforge.net/DTD/sodipodi-0.dtd"
   xmlns:inkscape="http://www.inkscape.org/namespaces/inkscape"
   width="512"
   height="512"
   viewBox="0 0 512 512"
   id="svg2"
   version="1.1"
   inkscape:version="0.91 r13725"
   sodipodi:docname="udacity-logo-512x512.svg">
  <defs
     id="defs4" />
  <sodipodi:namedview
     id="base"
     pagecolor="#ffffff"
     bordercolor="#666666"
     borderopacity="1.0"
     inkscape:pageopacity="0.0"
     inkscape:pageshadow="2"
     inkscape:zoom="0.7"
     inkscape:cx="173.85422"
     inkscape:cy="451.99386"
     inkscape:document-units="px"
     inkscape:current-layer="layer2"
     showgrid="false"
     units="px"
     inkscape:window-width="1920"
     inkscape:window-height="1017"
     inkscape:window-x="1912"
     inkscape:window-y="-8"
     inkscape:window-maximized="1" />
  <metadata
     id="metadata7">
    <rdf:RDF>
      <cc:Work
         rdf:about="">
        <dc:format>image/svg+xml</dc:format>
        <dc:type
           rdf:resource="http://purl.org/dc/dcmitype/StillImage" />
        <dc:title></dc:title>
      </cc:Work>
    </rdf:RDF>
  </metadata>
  <g
     inkscape:label="Layer 1"
     inkscape:groupmode="layer"
     id="layer1"
     transform="translate(0,-540.36219)" />
  <g
     inkscape:groupmode="layer"
     id="layer2"
     inkscape:label="Layer 2"
     transform="translate(0,-540.36219)">
    <g
       id="g4231">
      <path
         sodipodi:nodetypes="ssssscsssscscsccsssccssscccsssccssscccssscscsscsscsssssscssccsssccscssssscssscscssscsssscssc"
         inkscape:connector-curvature="0"
         id="path3384"
         d="m 73.556457,1029.1464 c -4.316853,-1.8932 -8.699927,-7.1021 -10.030223,-11.92 -0.572104,-2.0719 -0.95617,-10.2162 -0.85349,-18.09836 0.176573,-13.54731 0.305114,-14.33119 2.351715,-14.33119 2.051022,0 2.193501,0.90207 2.706271,17.13535 l 0.541238,17.1354 4.043503,3.7029 c 3.489766,3.1958 4.794307,3.7029 9.525694,3.7029 5.942081,0 10.1037,-1.6688 13.496047,-5.4119 1.910287,-2.1078 2.225591,-4.36 2.70372,-19.3133 0.479925,-15.00913 0.755922,-16.96823 2.435638,-17.28926 1.74004,-0.3326 1.89437,1.04254 1.89437,16.87726 0,16.0886 -0.1631,17.485 -2.444355,20.9177 -4.912146,7.3916 -17.643971,10.7194 -26.370128,6.8925 z m 60.207203,-21.7743 0,-23.43134 10.64889,0.5868 c 18.76096,1.03378 26.19184,7.64151 26.1326,23.23774 -0.0602,15.8769 -9.35233,23.0381 -29.89293,23.0381 l -6.88856,0 z m 25.2149,15.5568 c 7.36576,-5.6182 9.33806,-15.6916 4.82467,-24.64198 -3.28216,-6.50875 -9.50272,-9.70131 -18.90261,-9.70131 l -6.80693,0 0,19.08299 0,19.0829 8.58838,-0.4971 c 7.13769,-0.4132 9.21467,-0.9749 12.29649,-3.3255 z m 34.06648,7.2571 c -0.80278,-0.8028 16.1814,-42.75797 18.10557,-44.72532 0.80752,-0.82561 2.1515,-1.23895 2.98665,-0.91847 1.34421,0.51585 19.21709,42.56689 19.21709,45.21379 0,0.5761 -0.93122,1.0474 -2.06935,1.0474 -1.55869,0 -2.80839,-1.8836 -5.06399,-7.6328 -1.64702,-4.198 -3.43402,-7.9043 -3.97111,-8.2362 -0.53707,-0.332 -5.28074,0.2326 -10.54149,1.2543 l -9.56496,1.8579 -2.76624,6.3784 c -2.47741,5.7125 -4.52124,7.572 -6.33217,5.761 z m 21.04151,-18.9957 c 3.15504,-0.6658 5.90744,-1.3645 6.11646,-1.5527 0.2089,-0.1883 -1.2269,-4.2724 -3.19089,-9.0759 -1.96397,-4.80348 -3.91988,-8.36714 -4.34649,-7.91922 -0.42661,0.44794 -2.48422,5.07679 -4.5725,10.28632 -4.30603,10.7422 -4.4994,10.4756 5.99342,8.2615 z m 53.80765,17.0944 c -2.62398,-1.3854 -6.22437,-4.5824 -8.00085,-7.1046 -2.71824,-3.8593 -3.28856,-5.8182 -3.60012,-12.3657 -0.31322,-6.5817 0.0304,-8.5302 2.23052,-12.65125 3.58263,-6.71036 10.02606,-11.0547 17.28955,-11.65704 9.2412,-0.76636 19.2257,2.99226 17.8023,6.70157 -0.54945,1.43184 -1.22941,1.37189 -5.27769,-0.46547 -13.6248,-6.18367 -26.7274,0.86668 -27.65034,14.87839 -0.32659,4.9584 0.10335,7.2257 2.09489,11.0468 3.48957,6.6954 7.11454,9.0293 14.89874,9.5923 5.51493,0.3989 7.17535,0.054 11.26624,-2.3439 3.91032,-2.2916 5.01878,-2.5458 5.99133,-1.374 2.69204,3.2437 -7.28328,8.1324 -16.76075,8.2141 -3.75465,0.032 -7.03449,-0.7558 -10.28382,-2.4712 z m 58.01641,0.155 c -0.3392,-1.3792 -0.47838,-11.763 -0.3093,-23.0752 0.29508,-19.7435 0.39416,-20.56765 2.47242,-20.56765 2.09623,0 2.16503,0.72166 2.16503,22.71785 0,20.595 -0.17339,22.7512 -1.85573,23.0752 -1.20408,0.2319 -2.07228,-0.5232 -2.47242,-2.1502 z m 48.16966,-18.7452 0,-21.10889 -8.11879,0 c -7.39713,0 -8.11879,-0.19249 -8.11879,-2.165 0,-2.08013 0.72166,-2.16503 18.40261,-2.16503 17.68095,0 18.40263,0.085 18.40263,2.16503 0,1.97256 -0.72168,2.165 -8.11881,2.165 l -8.11879,0 0,21.10889 c 0,20.3872 -0.0742,21.1089 -2.16503,21.1089 -2.091,0 -2.16503,-0.7217 -2.16503,-21.1089 z m 59.17708,20.3872 c -0.39691,-0.3969 -0.72166,-4.9061 -0.72166,-10.0204 l 0,-9.2988 -8.11882,-12.14985 c -4.46533,-6.68242 -8.11881,-12.68223 -8.11881,-13.33285 0,-3.36993 4.55572,0.63414 10.82461,9.51389 3.87024,5.48201 7.36579,9.98131 7.76791,9.99841 0.40212,0.017 3.95762,-4.5966 7.90108,-10.25268 4.89887,-7.02646 7.83895,-10.28384 9.28204,-10.28384 1.16167,0 2.11211,0.25792 2.11211,0.57315 0,0.31526 -3.89701,6.39 -8.66003,13.49945 l -8.66007,12.92632 0,9.7744 c 0,7.4238 -0.34713,9.7745 -1.44334,9.7745 -0.79385,0 -1.7681,-0.3248 -2.16502,-0.7217 z"
         style="fill:#000000" />
      <path
         inkscape:connector-curvature="0"
         id="path3384-9"
         d="m 401.99742,567.45481 c -0.54717,0 -7.59347,3.84086 -15.6588,8.53566 -13.2465,7.71089 -23.38973,13.55888 -53.63413,30.91804 -5.35843,3.07555 -11.58673,6.78243 -13.84141,8.2376 l -4.10036,2.64563 0.0385,80.10493 c 0.0216,46.41042 -0.41548,84.03355 -1.03928,89.44379 -0.98439,8.53727 -4.8578,22.80059 -7.82616,28.81973 -1.31411,2.66462 -5.5188,3.21906 -11.22742,1.47976 -1.72616,-0.52592 -5.3302,-1.58242 -8.00942,-2.34757 -5.61293,-1.60294 -18.36637,-7.68073 -23.21194,-11.0626 -6.18872,-4.31925 -18.15717,-16.46284 -22.5011,-22.83079 -5.47457,-8.02539 -10.10507,-18.20973 -13.06466,-28.734 -2.24272,-7.97494 -2.32916,-10.68537 -2.88962,-90.96048 l -0.57761,-82.74133 -10.10778,-5.90981 c -10.0645,-5.88453 -10.12237,-5.90169 -13.53147,-4.1676 -4.30152,2.18799 -11.91908,6.53153 -27.77917,15.83951 -6.84688,4.0183 -22.43592,13.04589 -34.64119,20.06118 -12.20527,7.01533 -26.07748,15.00399 -30.82836,17.75186 -4.75088,2.74788 -9.622295,5.49696 -10.825203,6.11028 -2.165102,1.10372 -2.187986,1.93611 -2.187986,81.18904 0,72.82314 0.17558,80.88412 1.934765,89.03757 11.502984,53.31382 55.426914,92.36956 108.481524,96.4588 21.08435,1.62511 45.31572,-2.68416 61.70291,-10.97424 6.32486,-3.19963 69.14734,-39.19309 100.13182,-57.3691 15.27227,-8.959 25.19443,-17.66639 34.85221,-30.58568 10.66277,-14.26387 18.65308,-33.23114 20.74962,-49.25416 0.71091,-5.43329 1.2757,-167.61186 0.58558,-168.16787 -1.69786,-1.36793 -20.2005,-11.52815 -20.99365,-11.52815 z m -198.27879,23.81465 c 0.31919,0 0.77661,35.19493 1.01686,78.21105 0.46836,83.83291 0.28172,80.86541 6.1815,98.21421 5.80802,17.07899 16.53744,32.8313 31.28207,45.92667 11.12168,9.8776 25.56386,17.8524 40.44016,22.33093 4.61423,1.38911 8.38932,2.81694 8.38932,3.17187 0,1.45887 -12.62635,13.43332 -18.8017,17.83099 -8.20221,5.84099 -20.57946,11.69878 -31.12244,14.73035 -10.56661,3.03835 -35.0716,3.90625 -45.2145,1.6011 -38.76803,-8.8108 -65.4921,-33.78144 -77.14673,-72.08363 -2.42515,-7.97014 -2.45106,-8.75727 -2.8184,-83.49045 l -0.3706,-75.44408 2.48869,-1.55362 c 5.09582,-3.18022 72.97608,-42.28469 76.1009,-43.84023 1.78612,-0.88916 4.54042,-2.51439 6.12079,-3.61104 1.58037,-1.09667 3.13495,-1.99412 3.45408,-1.99412 z m 197.94642,0 c 0.4739,0 0.86123,32.86491 0.86123,73.03189 0,67.67427 -0.15261,73.81951 -2.08641,83.7951 -4.08186,21.05675 -15.12244,39.14872 -32.56006,53.35581 -5.98155,4.87351 -20.13932,12.03583 -28.13922,14.23578 -7.42795,2.04265 -11.90666,3.03951 -11.90666,2.65091 0,-0.16413 0.51002,-1.99934 1.13423,-4.07924 6.25936,-20.85661 5.75609,-12.49176 6.16043,-102.31849 l 0.37058,-82.2982 13.75835,-7.99361 c 7.56686,-4.39606 18.52931,-10.83761 24.36197,-14.31491 5.8326,-3.47728 10.78047,-6.32261 10.99406,-6.32261 0.21358,0 3.94356,-2.19135 8.28904,-4.87055 4.34554,-2.67921 8.28857,-4.87188 8.76246,-4.87188 z"
         style="fill:#02b3e4;fill-opacity:1" />
    </g>
  </g>
</svg>
